<?xml version="1.0" encoding="UTF-8"?>
<svg id="Layer_1" data-name="Layer 1" xmlns="http://www.w3.org/2000/svg" viewBox="0 0 528.06 224.85">
  <path d="M180.52,62.33l-37.7,100.19h28.09l5.11-15.17h41.61l5.11,15.17h28.09l-37.85-100.19h-32.45ZM182.77,125.57l13.97-40.71,14.12,40.71h-28.09Z"/>
  <polygon points="332.33 162.52 405.78 162.52 405.78 140.74 358.17 140.74 358.17 122.71 404.73 122.71 404.73 100.78 358.17 100.78 358.17 84.11 405.78 84.11 405.78 62.33 332.33 62.33 332.33 162.52"/>
  <polygon points="484.97 120.01 444.41 62.33 417.82 62.33 417.82 162.52 443.66 162.52 443.66 101.99 486.02 162.52 510.95 162.52 510.95 62.33 484.97 62.33 484.97 120.01"/>
  <polygon points="42.95 94.93 68.18 162.52 79.6 162.52 104.99 94.93 104.99 162.52 130.82 162.52 130.82 62.33 94.92 62.33 73.89 119.11 53.01 62.33 17.11 62.33 17.11 162.52 42.95 162.52 42.95 94.93"/>
  <path d="M294.47,88.17v31.12h0v6.73c0,8.41-5.26,13.67-13.37,13.67-6.01,0-10.82-2.85-14.42-5.86l-10.82,19.68c7.51,6.61,17.43,9.01,27.49,9.01,21.93,0,36.95-11.42,36.95-36.2v-63.99l-25.84,25.84Z"/>
</svg>